<svg width="241" height="96" viewBox="0 0 241 96" fill="none" xmlns="http://www.w3.org/2000/svg">
<path fill-rule="evenodd" clip-rule="evenodd" d="M50.176 77.4838C53.1419 77.4838 54.2777 75.78 54.2777 74.1393C54.2777 69.9745 47.6519 71.4259 47.6519 68.9018C47.6519 67.8921 48.5984 67.1349 49.9236 67.1349C50.5404 67.1414 51.1495 67.2734 51.7136 67.5229C52.2778 67.7724 52.7852 68.1342 53.205 68.5862L54.0253 67.5766C53.5019 67.061 52.8804 66.6557 52.1975 66.3847C51.5146 66.1137 50.7843 65.9826 50.0498 65.999C47.8412 65.999 46.2005 67.2611 46.2005 69.1542C46.2005 73.1297 52.8264 71.489 52.8264 74.3918C52.8264 75.2752 52.1953 76.348 50.176 76.348C49.5269 76.3721 48.8803 76.2548 48.281 76.0042C47.6817 75.7536 47.144 75.3756 46.7053 74.8966L45.885 75.9693C46.4163 76.5778 47.0781 77.0584 47.8211 77.3753C48.5642 77.6921 49.3691 77.8371 50.176 77.7993V77.4838ZM73.8398 77.7993V67.3242H77.3736V66.0621H68.9177V67.3242H72.4515V77.2314H73.8398V77.7993ZM97.1881 77.2314C97.8052 77.2916 98.4279 77.2132 99.0108 77.0021C99.5938 76.7909 100.122 76.4523 100.558 76.0108C100.993 75.5694 101.325 75.0364 101.528 74.4506C101.731 73.8648 101.801 73.241 101.732 72.6249V66.0621H100.344V72.8773C100.344 73.7141 100.011 74.5166 99.4191 75.1083C98.8274 75.7 98.0249 76.0324 97.1881 76.0324C96.3513 76.0324 95.5488 75.7 94.957 75.1083C94.3653 74.5166 94.0329 73.7141 94.0329 72.8773V66.0621H92.6446V72.9404C92.586 73.5516 92.6633 74.1682 92.8709 74.7461C93.0785 75.324 93.4113 75.8488 93.8455 76.283C94.2796 76.7172 94.8045 77.05 95.3823 77.2576C95.9602 77.4652 96.5769 77.5425 97.1881 77.4838V77.2314ZM121.609 76.0324H119.148V67.3242H121.609C122.764 67.3242 123.872 67.7829 124.688 68.5995C125.505 69.416 125.964 70.5235 125.964 71.6783C125.964 72.8331 125.505 73.9406 124.688 74.7571C123.872 75.5737 122.764 76.0324 121.609 76.0324ZM121.609 77.2314C122.393 77.3148 123.185 77.2325 123.934 76.9898C124.683 76.7472 125.373 76.3496 125.959 75.8229C126.545 75.2962 127.013 74.6523 127.334 73.9328C127.654 73.2133 127.82 72.4344 127.82 71.6468C127.82 70.8591 127.654 70.0802 127.334 69.3607C127.013 68.6413 126.545 67.9973 125.959 67.4706C125.373 66.9439 124.683 66.5464 123.934 66.3037C123.185 66.061 122.393 65.9787 121.609 66.0621H117.571V77.2314H121.609ZM142.938 77.2314H144.327V66.0621H142.812L142.938 77.2314ZM165.466 76.2218C164.261 76.2218 163.106 75.7431 162.254 74.891C161.402 74.039 160.923 72.8833 160.923 71.6783C160.923 70.4733 161.402 69.3177 162.254 68.4656C163.106 67.6135 164.261 67.1349 165.466 67.1349C166.671 67.1349 167.827 67.6135 168.679 68.4656C169.531 69.3177 170.01 70.4733 170.01 71.6783C170.01 72.8833 169.531 74.039 168.679 74.891C167.827 75.7431 166.671 76.2218 165.466 76.2218ZM165.466 77.4838C166.624 77.5342 167.77 77.237 168.758 76.6305C169.745 76.024 170.528 75.1359 171.006 74.0805C171.485 73.0251 171.636 71.8507 171.442 70.7084C171.247 69.5661 170.715 68.5082 169.914 67.6709C169.113 66.8335 168.08 66.255 166.947 66.0098C165.815 65.7646 164.635 65.8638 163.559 66.2948C162.484 66.7258 161.562 67.4688 160.912 68.4283C160.262 69.3877 159.914 70.5196 159.913 71.6783C159.87 72.4307 159.982 73.184 160.242 73.8912C160.503 74.5984 160.906 75.2445 161.427 75.7891C161.948 76.3337 162.575 76.7653 163.27 77.0568C163.965 77.3484 164.713 77.4937 165.466 77.4838ZM190.203 77.4838C193.232 77.4838 194.305 75.78 194.305 74.1393C194.305 69.9745 187.679 71.4259 187.679 68.9018C187.679 67.8921 188.688 67.1349 190.014 67.1349C190.632 67.1298 191.245 67.2566 191.811 67.5068C192.377 67.7571 192.882 68.1251 193.295 68.5862L194.115 67.5766C193.592 67.061 192.97 66.6557 192.287 66.3847C191.605 66.1137 190.874 65.9826 190.14 65.999C187.931 65.999 186.29 67.2611 186.29 69.1542C186.29 73.1297 192.916 71.489 192.916 74.3918C192.916 75.2752 192.285 76.348 190.329 76.348C189.701 76.354 189.079 76.2279 188.503 75.9778C187.926 75.7278 187.409 75.3594 186.985 74.8966L186.164 75.9693C186.696 76.5778 187.357 77.0584 188.1 77.3753C188.843 77.6921 189.648 77.8371 190.455 77.7993L190.203 77.4838ZM156.19 42.7138V55.3345H142.812H94.4115H55.0981C53.6642 55.3574 52.24 55.096 50.9078 54.5653C49.5755 54.0345 48.3617 53.245 47.3364 52.2424C45.4311 50.2519 44.3491 47.6144 44.3074 44.8593V29.0835C44.2782 26.1385 45.3339 23.2858 47.2733 21.0693C49.205 19.1992 51.7786 18.1382 54.4671 18.1035H108.295V41.578H139.846V18.1035H155.811V29.0835L171.461 18.1035H192.538L170.515 36.4035L192.79 55.3345H170.956L156.19 42.7138ZM174.427 36.4035L199.668 15.7055H170.641L158.651 24.4138V15.7055H137.764V38.9907H111.26V15.5162H54.4671C52.7488 15.4725 51.0398 15.7801 49.4447 16.4203C47.8496 17.0605 46.402 18.0198 45.1908 19.2393C42.841 21.9375 41.6405 25.4483 41.8464 29.0204V44.7331C41.8981 48.111 43.2024 51.3493 45.5064 53.82C46.7583 55.0858 48.2536 56.085 49.902 56.7574C51.5505 57.4298 53.318 57.7615 55.0981 57.7325H97.1881H145.526H158.651V48.0145L170.073 57.5431H199.605L174.427 36.4035Z" fill="#5B6376"/>
<path fill-rule="evenodd" clip-rule="evenodd" d="M92.3292 20.5644V29.2727H60.1464C59.8685 29.2579 59.5905 29.3007 59.3298 29.3984C59.0692 29.4961 58.8316 29.6467 58.6319 29.8406C58.2902 30.2455 58.1104 30.7625 58.1271 31.292V32.491H92.3292V41.0099H58.1271V42.1458C58.1297 42.634 58.309 43.1048 58.6319 43.471C59.0081 43.8262 59.503 44.0286 60.0202 44.0389H92.3292V52.7472H55.4137C54.2599 52.7925 53.1086 52.6096 52.0257 52.2089C50.9428 51.8082 49.9497 51.1977 49.1033 50.4123C47.6891 48.8532 46.8828 46.8374 46.8316 44.733V28.8941C46.75 26.5769 47.5635 24.3172 49.1033 22.5837C50.6847 21.1875 52.737 20.4432 54.8457 20.5013H92.3292V20.5644ZM94.9795 20.5013H106.212V43.9758H140.73V52.7472H94.8533V20.5013H94.9795ZM172.218 20.5013H185.659L166.728 36.2141L186.038 52.4317H171.903L153.729 37.2237V52.4317H142.812V20.6906H153.792V34.0686L172.408 20.6906" fill="#5B6376"/>
</svg>
