<svg width="86" height="22" viewBox="0 0 86 22" fill="none" xmlns="http://www.w3.org/2000/svg">
<g clip-path="url(#clip0)">
<path d="M0 0.500977H5.92118V7.83693C6.4851 7.2162 7.16181 6.76476 7.89491 6.4826C8.628 6.20045 9.47389 6.03116 10.3762 6.03116C12.2371 6.03116 13.7597 6.70833 15.0003 8.06266C16.2409 9.41699 16.8049 11.3356 16.8049 13.8186C16.8049 15.5115 16.5229 16.9787 15.959 18.2201C15.3951 19.518 14.662 20.4209 13.6469 21.0417C12.6882 21.6624 11.5604 22.001 10.3762 22.001C9.3611 22.001 8.40243 21.7753 7.55655 21.3238C6.93624 20.9852 6.20314 20.3081 5.47004 19.4052V21.6624H0V0.500977ZM5.86479 13.9314C5.86479 15.2293 6.09036 16.1886 6.59788 16.8094C7.10541 17.3737 7.72573 17.7123 8.45883 17.7123C9.13553 17.7123 9.75585 17.4301 10.207 16.8658C10.6581 16.3015 10.9401 15.2858 10.9401 13.9314C10.9401 12.7464 10.7145 11.8435 10.2634 11.2792C9.81224 10.7149 9.24832 10.4327 8.57161 10.4327C7.78212 10.4327 7.10541 10.7149 6.59788 11.3356C6.09036 11.8435 5.86479 12.69 5.86479 13.9314Z" fill="white"/>
<path d="M34.794 15.3986H23.0644C23.1772 16.3579 23.4028 17.0351 23.8539 17.4865C24.4178 18.1637 25.1509 18.5023 26.0532 18.5023C26.6171 18.5023 27.181 18.333 27.6886 18.0508C28.0269 17.8815 28.3653 17.543 28.7036 17.0915L34.4556 17.5994C33.5533 19.123 32.5383 20.2516 31.2413 20.8724C30.0006 21.606 28.1961 21.9445 25.884 21.9445C23.8539 21.9445 22.2749 21.6624 21.0907 21.0981C19.9064 20.5338 18.9478 19.6309 18.2147 18.3894C17.4252 17.148 17.0868 15.6808 17.0868 13.9879C17.0868 11.6178 17.8763 9.64271 19.3989 8.17552C20.9215 6.70832 23.0644 5.97473 25.7148 5.97473C27.9141 5.97473 29.6059 6.31331 30.9029 6.99048C32.1999 7.66764 33.1022 8.62696 33.7789 9.86843C34.4556 11.1099 34.794 12.7464 34.794 14.7779V15.3986ZM28.8164 12.5771C28.7036 11.4485 28.4217 10.6585 27.9141 10.1506C27.4066 9.64271 26.7863 9.41698 25.9404 9.41698C25.0381 9.41698 24.2486 9.812 23.7411 10.5456C23.4028 10.997 23.1772 11.6742 23.0644 12.5771H28.8164Z" fill="white"/>
<path d="M42.7453 0.500977V6.31331H45.9596V10.602H42.7453V16.0193C42.7453 16.6965 42.8017 17.0915 42.9144 17.3172C43.0836 17.6558 43.422 17.8251 43.9295 17.8251C44.3806 17.8251 44.9446 17.7123 45.7341 17.4301L46.1852 21.4931C44.719 21.8317 43.3656 21.9445 42.1249 21.9445C40.6587 21.9445 39.5873 21.7753 38.9106 21.3802C38.2339 20.9852 37.7264 20.4209 37.388 19.6873C37.0497 18.9537 36.8805 17.7123 36.8805 15.9629V10.602H34.7376V6.31331H36.8805V3.49179L42.7453 0.500977Z" fill="white"/>
<path d="M55.1738 0.500854L54.1557 6.32849H57.3797L56.6444 10.6285H53.4204L52.4589 16.0601C52.3457 16.739 52.3457 17.1351 52.4023 17.3614C52.5154 17.7009 52.8548 17.8706 53.3073 17.8706C53.7598 17.8706 54.3819 17.7574 55.1738 17.4745L54.891 21.4916C53.3638 21.8311 52.0064 21.9443 50.762 21.9443C49.2914 21.9443 48.2733 21.7745 47.6511 21.3785C47.029 20.9824 46.633 20.4166 46.4068 19.6811C46.2371 18.9456 46.2371 17.7009 46.5765 15.9469L47.538 10.5719H45.3887L46.124 6.27191H48.2733L48.7824 3.44296L55.1738 0.500854Z" fill="url(#paint0_linear)"/>
<path d="M59.1897 6.32849H65.0721L62.3571 21.6614H56.5313L59.1897 6.32849ZM60.2078 0.500854H66.0902L65.4114 4.51796H59.529L60.2078 0.500854Z" fill="url(#paint1_linear)"/>
<path d="M68.2961 0.500854H74.1785L70.4454 21.6614H64.563L68.2961 0.500854Z" fill="url(#paint2_linear)"/>
<path d="M83.7939 0.500854L82.7758 6.32849H85.9998L85.2645 10.6285H82.0405L81.0789 16.0601C80.9658 16.739 80.9658 17.1351 81.0224 17.3614C81.1355 17.7009 81.4749 17.8706 81.9274 17.8706C82.3799 17.8706 83.002 17.7574 83.7939 17.4745L83.5111 21.5482C81.9839 21.8877 80.6265 22.0009 79.3821 22.0009C77.9115 22.0009 76.8934 21.8311 76.2712 21.4351C75.6491 21.039 75.2531 20.4732 75.0269 19.7377C74.8572 19.0022 74.8572 17.7574 75.1966 16.0035L76.1581 10.6285H74.0088L74.7441 6.32849H76.8934L77.4025 3.49954L83.7939 0.500854Z" fill="url(#paint3_linear)"/>
</g>
<defs>
<linearGradient id="paint0_linear" x1="45.3887" y1="11.2509" x2="85.9998" y2="11.2509" gradientUnits="userSpaceOnUse">
<stop stop-color="#FFC700"/>
<stop offset="1" stop-color="#FFEA21"/>
</linearGradient>
<linearGradient id="paint1_linear" x1="45.3887" y1="11.2509" x2="85.9998" y2="11.2509" gradientUnits="userSpaceOnUse">
<stop stop-color="#FFC700"/>
<stop offset="1" stop-color="#FFEA21"/>
</linearGradient>
<linearGradient id="paint2_linear" x1="45.3887" y1="11.2509" x2="85.9998" y2="11.2509" gradientUnits="userSpaceOnUse">
<stop stop-color="#FFC700"/>
<stop offset="1" stop-color="#FFEA21"/>
</linearGradient>
<linearGradient id="paint3_linear" x1="45.3887" y1="11.2509" x2="85.9998" y2="11.2509" gradientUnits="userSpaceOnUse">
<stop stop-color="#FFC700"/>
<stop offset="1" stop-color="#FFEA21"/>
</linearGradient>
<clipPath id="clip0">
<rect width="86" height="21.5" fill="white" transform="translate(0 0.500977)"/>
</clipPath>
</defs>
</svg>
